<?xml version="1.0" encoding="UTF-8" standalone="no"?>
<svg
   version="1.1"
   width="1536"
   height="1024"
   id="svg68"
   sodipodi:docname="logo.svg"
   inkscape:version="1.4.3 (0d15f75, 2025-12-25)"
   xmlns:inkscape="http://www.inkscape.org/namespaces/inkscape"
   xmlns:sodipodi="http://sodipodi.sourceforge.net/DTD/sodipodi-0.dtd"
   xmlns="http://www.w3.org/2000/svg"
   xmlns:svg="http://www.w3.org/2000/svg">
  <defs
     id="defs68" />
  <sodipodi:namedview
     id="namedview68"
     pagecolor="#ffffff"
     bordercolor="#000000"
     borderopacity="0.25"
     inkscape:showpageshadow="2"
     inkscape:pageopacity="0.0"
     inkscape:pagecheckerboard="0"
     inkscape:deskcolor="#d1d1d1"
     inkscape:zoom="0.75488281"
     inkscape:cx="768.99353"
     inkscape:cy="406.02329"
     inkscape:window-width="1920"
     inkscape:window-height="991"
     inkscape:window-x="-9"
     inkscape:window-y="-9"
     inkscape:window-maximized="1"
     inkscape:current-layer="svg68" />
  <path
     d="M0 0 C506.88 0 1013.76 0 1536 0 C1536 337.92 1536 675.84 1536 1024 C1029.12 1024 522.24 1024 0 1024 C0 686.08 0 348.16 0 0 Z "
     fill="#F4F5FA"
     transform="translate(0,0)"
     id="path1" />
  <path
     d="M0 0 C2.4375 1.75 2.4375 1.75 4 4 C4 5.32 4 6.64 4 8 C4.60062256 7.99476318 5.20124512 7.98952637 5.82006836 7.98413086 C8.52586838 7.96341986 11.23165177 7.95035875 13.9375 7.9375 C15.35579102 7.92493164 15.35579102 7.92493164 16.80273438 7.91210938 C18.15141602 7.90727539 18.15141602 7.90727539 19.52734375 7.90234375 C20.77632446 7.89448853 20.77632446 7.89448853 22.05053711 7.88647461 C24 8 24 8 25 9 C25.61367291 12.7706088 25.76328252 16.24763907 25 20 C22.68386044 22.48496978 20.17801344 23.84493889 17 25 C16.34 25 15.68 25 15 25 C15.04426664 30.99622139 15.11422059 36.99140123 15.20751953 42.98706055 C15.23566557 45.02473643 15.25691166 47.0625202 15.27099609 49.1003418 C15.29251378 52.03750589 15.33920948 54.97338153 15.390625 57.91015625 C15.39246796 59.26682152 15.39246796 59.26682152 15.39434814 60.65089417 C15.56256752 67.99064563 17.44867273 72.1788208 22.4375 77.6953125 C23.283125 78.49710937 24.12875 79.29890625 25 80.125 C27.59157226 82.59805524 29.88331269 84.83387289 31.9453125 87.76953125 C33.82120281 90.24099888 33.82120281 90.24099888 36.7421875 90.56640625 C37.77601563 90.56511719 38.80984375 90.56382812 39.875 90.5625 C47.41941681 90.83653103 53.85290462 92.69621363 61 95 C51.36579606 79.35858654 39.15412562 69.24891521 23 61 C23 51.76 23 42.52 23 33 C37.92236626 37.97412209 50.01588595 43.86722495 62 54 C62.52053955 54.42555176 63.0410791 54.85110352 63.57739258 55.28955078 C80.81759175 69.4026812 94.30940394 93.48455328 96.81030273 115.70336914 C99.27873603 145.58824942 93.96736838 174.21714163 74.70703125 197.80859375 C72.53020984 200.27016288 70.28784979 202.64181848 68 205 C67.40058594 205.67289063 66.80117188 206.34578125 66.18359375 207.0390625 C51.21245851 223.27126529 29.87010524 230.85215 9 236 C8.25169922 236.19722656 7.50339844 236.39445313 6.73242188 236.59765625 C-1.3721805 238.51266778 -9.59671539 238.39572312 -17.875 238.375 C-18.65145874 238.37478851 -19.42791748 238.37457703 -20.22790527 238.37435913 C-32.54641331 238.34087285 -44.11573925 237.46339687 -56 234 C-56.66257812 233.81808105 -57.32515625 233.63616211 -58.0078125 233.44873047 C-84.29523889 226.12412137 -108.52389032 209.21185856 -122.17578125 185.28515625 C-123.8592424 182.22751624 -125.45330038 179.1292499 -127 176 C-129.64 176 -132.28 176 -135 176 C-130.76831988 172.6502949 -126.21089262 170.63729097 -121.3125 168.4375 C-120.45205078 168.03853516 -119.59160156 167.63957031 -118.70507812 167.22851562 C-113.17731899 164.73331764 -107.96276655 163.11764115 -102 162 C-101.56171875 162.84820313 -101.1234375 163.69640625 -100.671875 164.5703125 C-87.6025953 189.06595733 -67.06629611 204.45428298 -40.85546875 213.02734375 C-22.27823219 217.71400221 -2.23486374 218.22753159 16 212 C17.134375 211.62617187 18.26875 211.25234375 19.4375 210.8671875 C40.03700457 203.53104319 55.47784898 190.72648599 65 171 C72.13702973 155.75820769 72.38132483 141.5381993 72 125 C69.03 123.35 66.06 121.7 63 120 C63.01571045 120.78536133 63.0314209 121.57072266 63.04760742 122.37988281 C63.11069303 126.00317936 63.14922211 129.62635973 63.1875 133.25 C63.21263672 134.48492187 63.23777344 135.71984375 63.26367188 136.9921875 C63.32788983 145.126462 62.42113984 152.23402306 60 160 C59.65839844 161.10214844 59.31679688 162.20429687 58.96484375 163.33984375 C52.58956152 179.45985395 40.48071347 191.44007116 25 199 C20.10710802 200.99696773 15.08882343 202.58023422 10 204 C9.00987915 204.28037109 9.00987915 204.28037109 7.99975586 204.56640625 C-7.8279226 208.61043497 -26.66128547 207.45138983 -42 202 C-43.05832031 201.62617187 -44.11664063 201.25234375 -45.20703125 200.8671875 C-65.27124969 193.08876135 -82.28584911 179.46639649 -92 160 C-92 159.34 -92 158.68 -92 158 C-66.91299479 147.58067522 -37.10144429 146.17859527 -10.27368164 144.73339844 C1.31712984 144.68260242 1.31712984 144.68260242 11.7421875 140.63525391 C14.91374218 136.51198658 13.49249003 128.9871096 13 124 C11.97368518 120.93438431 10.73214453 118.76060534 9 116 C9 115.34 9 114.68 9 114 C13.43936951 115.35647402 15.4156882 117.16808939 18 121 C20.4420981 125.67412324 20.36698091 130.16023677 20.375 135.3125 C20.39949219 136.12912109 20.42398438 136.94574219 20.44921875 137.78710938 C20.48254359 144.75755546 18.68316428 150.07291169 13.9375 155.25 C-3.4567002 165.61250225 -26.18218633 163.26387724 -45.625 163.125 C-48.09635051 163.11494331 -50.56770502 163.10582225 -53.0390625 163.09765625 C-59.02613044 163.07587167 -65.0130459 163.04261005 -71 163 C-57.46853306 166.054207 -44.6069218 167.37302041 -30.74633789 167.37060547 C-27.9663246 167.3749549 -25.18793488 167.41132562 -22.40820312 167.44921875 C-6.8714666 167.54636258 13.0693492 167.16245729 25.59375 156.6640625 C31.75178887 150.18380067 32.56325559 141.63876932 32.56225586 133.10302734 C32.29009772 126.19589758 30.06022803 120.61757577 26 115 C19.69001273 109.47876114 12.86531338 108.68254941 4.80859375 108.62890625 C3.91861694 108.61783844 3.02864014 108.60677063 2.11169434 108.59536743 C-0.77987751 108.56835893 -3.67080727 108.56211255 -6.5625 108.5625 C-7.54886444 108.56110016 -8.53522888 108.55970032 -9.55148315 108.55825806 C-31.90265483 108.58434565 -52.76431204 111.81001621 -74.27734375 117.984375 C-77.52148575 118.86945047 -80.6752251 119.52131566 -84 120 C-73.05492837 110.41943332 -53.81636769 107.80970624 -40 105 C-39.2270459 104.83483887 -38.4540918 104.66967773 -37.65771484 104.49951172 C-26.18801725 102.11482078 -14.80091726 101.73907482 -3.125 101.75 C-2.4290271 101.75059418 -1.7330542 101.75118835 -1.01599121 101.75180054 C23.8065191 101.83276421 55.4351844 102.94761471 74.99609375 120.82421875 C80.05241876 126.41406486 81.25287508 131.65327166 82 139 C85.8892011 132.47169816 88.6688233 126.68149549 87 119 C83.39137925 110.12395702 75.7464274 105.65548131 67.37109375 101.78515625 C49.44499566 94.7055497 28.84816878 93.63520139 9.76782227 93.73925781 C7.43414459 93.75001547 5.10123345 93.7392547 2.76757812 93.7265625 C-30.43097172 93.6948075 -61.59571524 102.04117179 -91.11254883 117.09545898 C-93 118 -93 118 -96 119 C-95.13908204 104.07742197 -86.22905698 90.28880831 -75.62890625 80.16796875 C-68.88110059 74.60328503 -61.03911431 69.43396396 -53 66 C-51.515 66.495 -51.515 66.495 -50 67 C-50.76183594 67.76570313 -50.76183594 67.76570313 -51.5390625 68.546875 C-57.14398745 74.46668337 -60.68459016 80.57800298 -64 88 C-63.236875 86.9275 -62.47375 85.855 -61.6875 84.75 C-58.31836739 80.23082693 -54.55137138 76.14016843 -50.69604492 72.03808594 C-44.39333707 65.30437684 -45.56338336 57.89894064 -45.43017578 49.08886719 C-45.39352263 47.20301373 -45.33895747 45.31741968 -45.26611328 43.43261719 C-44.78861041 34.64979473 -44.78861041 34.64979473 -46 26 C-47.93055244 23.71037769 -47.93055244 23.71037769 -50.5390625 22.484375 C-52.01117188 21.66453125 -53.48328125 20.8446875 -55 20 C-55 16.04 -55 12.08 -55 8 C-40.48 8 -25.96 8 -11 8 C-10.67 6.35 -10.34 4.7 -10 3 C-7.55040876 -0.94656366 -4.2984107 -0.527875 0 0 Z "
     fill="#044988"
     transform="translate(489,375)"
     id="path2" />
  <path
     d="M0 0 C0.6959729 0.00059418 1.3919458 0.00118835 2.10900879 0.00180054 C26.49484013 0.08133989 59.30984847 0.97522196 78.19140625 19.25 C79.875 21.1875 79.875 21.1875 82.125 24.25 C81.795 24.91 81.465 25.57 81.125 26.25 C79.145 25.26 79.145 25.26 77.125 24.25 C77.125 28.87 77.125 33.49 77.125 38.25 C76.795 38.25 76.465 38.25 76.125 38.25 C76.15722656 37.22519531 76.18945312 36.20039062 76.22265625 35.14453125 C76.21327215 33.78383606 76.20142299 32.42315631 76.1875 31.0625 C76.22907227 30.05219727 76.22907227 30.05219727 76.27148438 29.02148438 C76.30001325 26.68582541 76.30001325 26.68582541 75.125 23.25 C72.32982289 21.08898405 69.36912935 19.62581266 66.125 18.25 C66.14856567 19.42804199 66.14856567 19.42804199 66.17260742 20.62988281 C66.23569303 24.25317936 66.27422211 27.87635973 66.3125 31.5 C66.33763672 32.73492187 66.36277344 33.96984375 66.38867188 35.2421875 C66.45288983 43.376462 65.54613984 50.48402306 63.125 58.25 C62.78339844 59.35214844 62.44179688 60.45429687 62.08984375 61.58984375 C55.71456152 77.70985395 43.60571347 89.69007116 28.125 97.25 C23.23210802 99.24696773 18.21382343 100.83023422 13.125 102.25 C12.46491943 102.43691406 11.80483887 102.62382813 11.12475586 102.81640625 C-4.7029226 106.86043497 -23.53628547 105.70138983 -38.875 100.25 C-40.46248047 99.68925781 -40.46248047 99.68925781 -42.08203125 99.1171875 C-62.14624969 91.33876135 -79.16084911 77.71639649 -88.875 58.25 C-88.875 57.59 -88.875 56.93 -88.875 56.25 C-63.78799479 45.83067522 -33.97644429 44.42859527 -7.14868164 42.98339844 C4.44212984 42.93260242 4.44212984 42.93260242 14.8671875 38.88525391 C18.03874218 34.76198658 16.61749003 27.2371096 16.125 22.25 C15.09868518 19.18438431 13.85714453 17.01060534 12.125 14.25 C12.125 13.59 12.125 12.93 12.125 12.25 C16.56436951 13.60647402 18.5406882 15.41808939 21.125 19.25 C23.5670981 23.92412324 23.49198091 28.41023677 23.5 33.5625 C23.52449219 34.37912109 23.54898438 35.19574219 23.57421875 36.03710938 C23.60754359 43.00755546 21.80816428 48.32291169 17.0625 53.5 C-0.3317002 63.86250225 -23.05718633 61.51387724 -42.5 61.375 C-44.97135051 61.36494331 -47.44270502 61.35582225 -49.9140625 61.34765625 C-55.90113044 61.32587167 -61.8880459 61.29261005 -67.875 61.25 C-54.34353306 64.304207 -41.4819218 65.62302041 -27.62133789 65.62060547 C-24.8413246 65.6249549 -22.06293488 65.66132562 -19.28320312 65.69921875 C-3.7464666 65.79636258 16.1943492 65.41245729 28.71875 54.9140625 C34.87678887 48.43380067 35.68825559 39.88876932 35.68725586 31.35302734 C35.41509772 24.44589758 33.18522803 18.86757577 29.125 13.25 C22.81501273 7.72876114 15.99031338 6.93254941 7.93359375 6.87890625 C7.04361694 6.86783844 6.15364014 6.85677063 5.23669434 6.84536743 C2.34512249 6.81835893 -0.54580727 6.81211255 -3.4375 6.8125 C-4.42386444 6.81110016 -5.41022888 6.80970032 -6.42648315 6.80825806 C-28.77765483 6.83434565 -49.63931204 10.06001621 -71.15234375 16.234375 C-74.39648575 17.11945047 -77.5502251 17.77131566 -80.875 18.25 C-69.92992837 8.66943332 -50.69136769 6.05970624 -36.875 3.25 C-36.1020459 3.08483887 -35.3290918 2.91967773 -34.53271484 2.74951172 C-23.06301725 0.36482078 -11.67591726 -0.01092518 0 0 Z "
     fill="#0454A2"
     transform="translate(485.875,476.75)"
     id="path3" />
  <path
     d="M0 0 C2.4375 1.75 2.4375 1.75 4 4 C4 5.32 4 6.64 4 8 C4.60062256 7.99476318 5.20124512 7.98952637 5.82006836 7.98413086 C8.52586838 7.96341986 11.23165177 7.95035875 13.9375 7.9375 C15.35579102 7.92493164 15.35579102 7.92493164 16.80273438 7.91210938 C18.15141602 7.90727539 18.15141602 7.90727539 19.52734375 7.90234375 C20.77632446 7.89448853 20.77632446 7.89448853 22.05053711 7.88647461 C24 8 24 8 25 9 C25.61367291 12.7706088 25.76328252 16.24763907 25 20 C22.68386044 22.48496978 20.17801344 23.84493889 17 25 C16.34 25 15.68 25 15 25 C15.04426664 30.99622139 15.11422059 36.99140123 15.20751953 42.98706055 C15.23566557 45.02473643 15.25691166 47.0625202 15.27099609 49.1003418 C15.29251378 52.03750589 15.33920948 54.97338153 15.390625 57.91015625 C15.39185364 58.81459976 15.39308228 59.71904327 15.39434814 60.65089417 C15.56256752 67.99064563 17.44867273 72.1788208 22.4375 77.6953125 C23.283125 78.49710937 24.12875 79.29890625 25 80.125 C27.59008988 82.59664065 29.87045706 84.81270582 31.91015625 87.76171875 C33.85568773 90.27657337 33.85568773 90.27657337 37.05859375 90.63671875 C38.17363281 90.65347656 39.28867187 90.67023438 40.4375 90.6875 C44.74143931 90.78225649 48.16507875 90.91898103 52 93 C52.33 93.99 52.66 94.98 53 96 C47.08033069 96.09162562 41.45816755 95.79204287 35.59765625 95.015625 C26.96920414 93.97270524 18.45307878 93.69189197 9.76782227 93.73925781 C7.43414459 93.75001547 5.10123345 93.7392547 2.76757812 93.7265625 C-30.43097172 93.6948075 -61.59571524 102.04117179 -91.11254883 117.09545898 C-93 118 -93 118 -96 119 C-95.13908204 104.07742197 -86.22905698 90.28880831 -75.62890625 80.16796875 C-68.88110059 74.60328503 -61.03911431 69.43396396 -53 66 C-52.01 66.33 -51.02 66.66 -50 67 C-50.76183594 67.76570313 -50.76183594 67.76570313 -51.5390625 68.546875 C-57.14398745 74.46668337 -60.68459016 80.57800298 -64 88 C-63.236875 86.9275 -62.47375 85.855 -61.6875 84.75 C-58.31836739 80.23082693 -54.55137138 76.14016843 -50.69604492 72.03808594 C-44.39333707 65.30437684 -45.56338336 57.89894064 -45.43017578 49.08886719 C-45.39352263 47.20301373 -45.33895747 45.31741968 -45.26611328 43.43261719 C-44.78861041 34.64979473 -44.78861041 34.64979473 -46 26 C-47.93055244 23.71037769 -47.93055244 23.71037769 -50.5390625 22.484375 C-52.01117188 21.66453125 -53.48328125 20.8446875 -55 20 C-55 16.04 -55 12.08 -55 8 C-40.48 8 -25.96 8 -11 8 C-10.67 6.35 -10.34 4.7 -10 3 C-7.55040876 -0.94656366 -4.2984107 -0.527875 0 0 Z "
     fill="#045FB3"
     transform="translate(489,375)"
     id="path4" />
  <path
     d="M0 0 C0 8.91 0 17.82 0 27 C-2.59875 28.32 -5.1975 29.64 -7.875 31 C-14.90339404 34.66945608 -21.12165559 38.62952726 -27 44 C-27.680625 44.58910156 -28.36125 45.17820312 -29.0625 45.78515625 C-40.94531554 56.7164182 -49.91564896 73.93823609 -52 90 C-52.00515625 90.75796875 -52.0103125 91.5159375 -52.015625 92.296875 C-52.08746869 95.86511146 -52.18168518 98.11873789 -54.67578125 100.8046875 C-57.05536186 102.63903561 -59.51743686 104.30783323 -62 106 C-64.03539357 107.62779229 -66.05628785 109.27387518 -68.0625 110.9375 C-69.00222656 111.70964844 -69.94195312 112.48179687 -70.91015625 113.27734375 C-71.59980469 113.84582031 -72.28945313 114.41429687 -73 115 C-71.87980469 114.4225 -70.75960938 113.845 -69.60546875 113.25 C-68.1329735 112.49968395 -66.66030836 111.74970125 -65.1875 111 C-64.44951172 110.6184375 -63.71152344 110.236875 -62.95117188 109.84375 C-62.23896484 109.4828125 -61.52675781 109.121875 -60.79296875 108.75 C-59.81106567 108.24726562 -59.81106567 108.24726562 -58.80932617 107.734375 C-57 107 -57 107 -54 107 C-53.1670322 112.72665364 -52.94378538 118.21692093 -53 124 C-56.62128443 126.00678401 -60.24761643 128.0042648 -63.875 130 C-64.90753906 130.57234375 -65.94007813 131.1446875 -67.00390625 131.734375 C-68.48310547 132.54648437 -68.48310547 132.54648437 -69.9921875 133.375 C-70.90339355 133.87773438 -71.81459961 134.38046875 -72.75341797 134.8984375 C-75 136 -75 136 -77 136 C-77.64894237 133.93847611 -78.2940264 131.87573742 -78.9375 129.8125 C-79.29714844 128.66394531 -79.65679687 127.51539063 -80.02734375 126.33203125 C-82.2010687 118.88549559 -82.25475138 111.67969058 -82.29516602 103.9753418 C-82.30657352 102.46971149 -82.32684244 100.9641179 -82.35668945 99.45874023 C-82.87097548 73.44276291 -73.15416044 50.15186625 -55.2578125 31.2578125 C-42.03127421 18.03127421 -20.0076635 0 0 0 Z "
     fill="#0378CD"
     transform="translate(435,405)"
     id="path8" />
  <path
     d="M0 0 C14.92236626 4.97412209 27.01588595 10.86722495 39 21 C39.52053955 21.42555176 40.0410791 21.85110352 40.57739258 22.28955078 C56.51034738 35.33254796 70.78514609 58.51078479 73.26953125 79.25 C73.33503453 82.10832485 72.90743588 84.27769236 72 87 C70.515 87.495 70.515 87.495 69 88 C68.65388672 87.12988281 68.65388672 87.12988281 68.30078125 86.2421875 C66.11951742 81.01750023 63.72241685 77.23941919 60 73 C60 72.34 60 71.68 60 71 C59.43152344 70.88527344 58.86304688 70.77054687 58.27734375 70.65234375 C55.7631919 69.93216646 53.81837138 68.880054 51.5625 67.5625 C48.42827588 65.7722476 45.36609501 64.30903695 42 63 C37.88492865 60.88902184 35.80358714 58.70538071 33.25 54.875 C24.39661318 42.3683569 13.56687864 34.78343932 0 28 C0 18.76 0 9.52 0 0 Z "
     fill="#6AB447"
     transform="translate(512,408)"
     id="path13" />
  <path
     d="M0 0 C4.43936951 1.35647402 6.4156882 3.16808939 9 7 C11.4420981 11.67412324 11.36698091 16.16023677 11.375 21.3125 C11.41173828 22.53743164 11.41173828 22.53743164 11.44921875 23.78710938 C11.48254359 30.75755546 9.68316428 36.07291169 4.9375 41.25 C-11.80856491 51.22637909 -33.5169838 49.3230973 -52.27148438 49.26074219 C-56.15249911 49.24992334 -60.03306088 49.26074492 -63.9140625 49.2734375 C-66.40364685 49.27211741 -68.89323091 49.26955815 -71.3828125 49.265625 C-72.53186066 49.26967346 -73.68090881 49.27372192 -74.86477661 49.27789307 C-80.9309276 49.24256405 -86.19136841 48.77871127 -92 47 C-92.12375 46.360625 -92.2475 45.72125 -92.375 45.0625 C-92.58125 44.381875 -92.7875 43.70125 -93 43 C-93.66 42.67 -94.32 42.34 -95 42 C-69.60378101 35.15975764 -43.97646906 32.24030286 -17.79296875 30.51171875 C-16.69259277 30.43453613 -15.5922168 30.35735352 -14.45849609 30.27783203 C-12.4221331 30.13845036 -10.38461512 30.01469293 -8.34619141 29.90966797 C-4.30447383 29.63309519 -1.5205105 29.27006386 2.109375 27.38671875 C5.37986466 23.25806341 4.65155598 18.73998105 4.44140625 13.72265625 C3.87273569 8.92670007 2.54538816 6.05671238 0 2 C0 1.34 0 0.68 0 0 Z "
     fill="#0876C9"
     transform="translate(498,489)"
     id="path14" />
  <path
     d="M0 0 C1.05960938 0.00676758 1.05960938 0.00676758 2.140625 0.01367188 C3.88545275 0.02546125 5.630237 0.04339676 7.375 0.0625 C7.51001894 2.50184225 7.60903897 4.93374104 7.6875 7.375 C7.72939453 8.06529297 7.77128906 8.75558594 7.81445312 9.46679688 C7.86328125 11.48828125 7.86328125 11.48828125 7.375 15.0625 C2.94857282 18.70299538 -1.8118961 19.4843074 -7.39453125 19.40234375 C-9.625 19.0625 -9.625 19.0625 -12.6875 17 C-15.15441113 13.25984441 -15.39778699 11.46738582 -14.625 7.0625 C-10.70584298 0.62182652 -7.11510132 -0.08532871 0 0 Z "
     fill="#F3F7FB"
     transform="translate(1021.625,510.9375)"
     id="path21" />
  <path
     d="M0 0 C0.90492188 0.2165625 0.90492188 0.2165625 1.828125 0.4375 C2.62734375 0.623125 3.4265625 0.80875 4.25 1 C5.03890625 1.185625 5.8278125 1.37125 6.640625 1.5625 C9.25556002 2.12154828 9.25556002 2.12154828 13 2 C15.40173016 3.05925363 17.68450579 4.1542792 20 5.375 C20.92425781 5.85066406 20.92425781 5.85066406 21.8671875 6.3359375 C23.58092239 7.21854775 25.2906031 8.10901718 27 9 C27.73089844 9.31839844 28.46179688 9.63679688 29.21484375 9.96484375 C35.13370102 13.39700387 38.74980203 20.77886442 41 27 C41.66 27 42.32 27 43 27 C43.495 25.515 43.495 25.515 44 24 C46.52146392 26.52146392 45.18557023 33.42962119 45.1875 36.8125 C45.19974609 37.89982422 45.21199219 38.98714844 45.22460938 40.10742188 C45.23795788 47.59593581 44.46375275 54.65801526 43 62 C42.67 62 42.34 62 42 62 C41.88215056 55.98967839 42.29219557 50.13143775 42.87890625 44.1484375 C43.00228817 40.94050747 42.63621952 38.13868298 42 35 C41.4225 36.11375 40.845 37.2275 40.25 38.375 C38.56230502 41.32697532 37.39280107 43.01499324 34 44 C33.01 44 32.02 44 31 44 C31.66 42.88625 32.32 41.7725 33 40.625 C35.41570875 35.69799689 36.06587393 31.40490404 35 26 C31.40774291 17.09934681 23.61231192 12.44013562 15.125 8.75 C9.84479008 6.75525403 4.50143742 5.24560847 -1 4 C-0.67 2.68 -0.34 1.36 0 0 Z "
     fill="#045F92"
     transform="translate(541,468)"
     id="path22" />
  <path
     d="M0 0 C1.9375 1.0625 1.9375 1.0625 3 3 C3.75471698 9.79245283 3.75471698 9.79245283 1.4375 13.5 C-1.99136114 15.61006839 -4.04220351 15.62491523 -8 15 C-11 12.9375 -11 12.9375 -13 10 C-13.1506132 5.70752394 -12.66257079 3.77949504 -9.875 0.5 C-6.08386986 -1.47798094 -4.07202027 -1.13111674 0 0 Z "
     fill="#0A84D5"
     transform="translate(429,501)"
     id="path27" />
  <path
     d="M0 0 C2.4375 1.5625 2.4375 1.5625 4 4 C4.56288002 7.94016013 4.60396028 10.05782196 2.4375 13.4375 C-0.94217804 15.60396028 -3.05983987 15.56288002 -7 15 C-9.4375 13.4375 -9.4375 13.4375 -11 11 C-11.56288002 7.05983987 -11.60396028 4.94217804 -9.4375 1.5625 C-6.05782196 -0.60396028 -3.94016013 -0.56288002 0 0 Z "
     fill="#0690E1"
     transform="translate(502,325)"
     id="path28" />
  <path
     d="M0 0 C2.9375 2.0625 2.9375 2.0625 5 5 C5.06641554 8.85210127 4.87229157 10.99848005 2.3125 13.9375 C-0.73602877 15.33817538 -2.67926952 15.4842732 -6 15 C-8.375 13.4375 -8.375 13.4375 -10 11 C-10.56783945 7.02512383 -10.62340519 4.93510779 -8.375 1.5625 C-5.24316508 -0.49791771 -3.68455227 -0.6767545 0 0 Z "
     fill="#0991E0"
     transform="translate(483,347)"
     id="path29" />
  <path
     d="M0 0 C2.5 2.0625 2.5 2.0625 4 5 C4 8.80284671 3.7968187 11.01930006 1.375 14 C-2.11581787 15.46981805 -4.39148956 14.98413921 -8 14 C-10.5881216 11.74582958 -10.94242643 10.39479021 -11.4375 7 C-11 4 -11 4 -9.4375 1.625 C-6.04129157 -0.63913895 -3.99900698 -0.64269755 0 0 Z "
     fill="#F0F5FB"
     transform="translate(485,391)"
     id="path30" />
  <path
     d="M0 0 C-0.33 0.66 -0.66 1.32 -1 2 C0.98 2.33 2.96 2.66 5 3 C5 3.33 5 3.66 5 4 C4.22100342 4.12528076 3.44200684 4.25056152 2.6394043 4.37963867 C-11.50159748 6.67589826 -25.48151917 9.04524256 -39.27734375 12.984375 C-42.52148575 13.86945047 -45.6752251 14.52131566 -49 15 C-45.29746792 11.7590568 -41.11754507 10.28961127 -36.5625 8.625 C-35.73862793 8.32263428 -34.91475586 8.02026855 -34.06591797 7.70874023 C-27.67342397 5.43890686 -21.22128191 3.63643506 -14.625 2.0625 C-13.74013916 1.85125488 -12.85527832 1.64000977 -11.94360352 1.42236328 C-7.90556963 0.50492947 -4.17030392 -0.28316878 0 0 Z "
     fill="#1285D5"
     transform="translate(454,480)"
     id="path31" />
  <path
     d="M0 0 C0.90492188 0.2165625 0.90492188 0.2165625 1.828125 0.4375 C2.62734375 0.623125 3.4265625 0.80875 4.25 1 C5.03890625 1.185625 5.8278125 1.37125 6.640625 1.5625 C9.25556002 2.12154828 9.25556002 2.12154828 13 2 C15.40173016 3.05925363 17.68450579 4.1542792 20 5.375 C20.92425781 5.85066406 20.92425781 5.85066406 21.8671875 6.3359375 C23.58092239 7.21854775 25.2906031 8.10901718 27 9 C27.77859375 9.3609375 28.5571875 9.721875 29.359375 10.09375 C31.5496983 11.30364287 32.08922276 12.72305691 33 15 C27.36428675 15.58705346 24.84646917 14.5262667 20.234375 11.37109375 C13.85932567 7.45913166 6.23798456 5.63878896 -1 4 C-0.67 2.68 -0.34 1.36 0 0 Z "
     fill="#1F9976"
     transform="translate(541,468)"
     id="path33" />
  <path
     d="M0 0 C0.45375 0.66 0.9075 1.32 1.375 2 C1.91125 2.66 2.4475 3.32 3 4 C3.66 4 4.32 4 5 4 C5.33 3.01 5.66 2.02 6 1 C8.52146392 3.52146392 7.18557023 10.42962119 7.1875 13.8125 C7.19974609 14.89982422 7.21199219 15.98714844 7.22460938 17.10742188 C7.23795788 24.59593581 6.46375275 31.65801526 5 39 C4.67 39 4.34 39 4 39 C3.88215056 32.98967839 4.29219557 27.13143775 4.87890625 21.1484375 C5.00228817 17.94050747 4.63621952 15.13868298 4 12 C2.515 14.475 2.515 14.475 1 17 C-0.18681726 13.43954823 -0.09689832 10.56191663 -0.0625 6.8125 C-0.05347656 5.54019531 -0.04445313 4.26789063 -0.03515625 2.95703125 C-0.02355469 1.98121094 -0.01195312 1.00539063 0 0 Z "
     fill="#1D8F87"
     transform="translate(579,491)"
     id="path34" />
  <path
     d="M0 0 C1 1 1 1 1.25 3.875 C1 7 1 7 -0.1875 8.9375 C-2 10 -2 10 -4.5625 9.875 C-7 9 -7 9 -9 6 C-8.75 2.875 -8.75 2.875 -8 0 C-5.11795733 -1.44102133 -3.08226581 -0.65580124 0 0 Z "
     fill="#1097E4"
     transform="translate(507,362)"
     id="path38" />
  <path
     d="M0 0 C3.29714793 0.32971479 4.6226839 0.6226839 7 3 C6.44444444 7.55555556 6.44444444 7.55555556 5 9 C2 9.125 2 9.125 -1 9 C-2 8 -2 8 -2.1875 5.0625 C-2 2 -2 2 0 0 Z "
     fill="#E7F0F9"
     transform="translate(465,416)"
     id="path39" />
  <path
     d="M0 0 C0 0.99 0 1.98 0 3 C-3.0404598 3.81706167 -6.08256683 4.6278202 -9.125 5.4375 C-9.9809375 5.66759766 -10.836875 5.89769531 -11.71875 6.13476562 C-16.12947383 7.30530387 -20.47452542 8.35456346 -25 9 C-20.80354706 5.62425557 -16.39193396 4.06957456 -11.375 2.25 C-10.50359375 1.92128906 -9.6321875 1.59257812 -8.734375 1.25390625 C-7.90164063 0.94839844 -7.06890625 0.64289063 -6.2109375 0.328125 C-5.45087402 0.0487207 -4.69081055 -0.23068359 -3.90771484 -0.51855469 C-2 -1 -2 -1 0 0 Z "
     fill="#3A9AE2"
     transform="translate(430,486)"
     id="path40" />
  <path
     d="M0 0 C4.2742558 1.5830577 6.26531794 4.50568404 9 8 C8.67 8.66 8.34 9.32 8 10 C6.68 9.34 5.36 8.68 4 8 C4 12.62 4 17.24 4 22 C3.67 22 3.34 22 3 22 C2.98582031 20.96359375 2.97164062 19.9271875 2.95703125 18.859375 C2.91011907 17.48953943 2.86187173 16.11974913 2.8125 14.75 C2.80669922 14.06808594 2.80089844 13.38617188 2.79492188 12.68359375 C2.6243492 8.7793748 2.29351169 7.2858705 -0.55078125 4.515625 C-1.35902344 4.01546875 -2.16726563 3.5153125 -3 3 C-2.01 2.67 -1.02 2.34 0 2 C0 1.34 0 0.68 0 0 Z "
     fill="#37A6A6"
     transform="translate(559,493)"
     id="path41" />
  <path
     d="M0 0 C2 1.5 2 1.5 3 3 C3 3.33 3 3.66 3 4 C-3.06892629 4.25287193 -8.16200408 3.69832609 -14 2 C-14 1.67 -14 1.34 -14 1 C-8.79247147 -1.21319962 -5.42229451 -1.15557096 0 0 Z "
     fill="#1A74B3"
     transform="translate(539,467)"
     id="path42" />
  <path
     d="M0 0 C0.66 1.32 1.32 2.64 2 4 C-4 12 -4 12 -10 20 C-8.78142455 12.50107416 -5.06744995 5.63049994 0 0 Z "
     fill="#E1EAF5"
     transform="translate(434,446)"
     id="path43" />
  <path
     d="M0 0 C4.5575811 0.54256918 8.07269376 1.59006208 12 4 C13.375 6.1875 13.375 6.1875 14 8 C8.42542628 8.56883405 5.64378079 7.57665715 1.28515625 4.38671875 C0 3 0 3 0 0 Z "
     fill="#118B7E"
     transform="translate(560,475)"
     id="path44" />
  <path
     d="M0 0 C6.4 0.36923077 6.4 0.36923077 9.4375 3.5625 C9.953125 4.366875 10.46875 5.17125 11 6 C10 8 10 8 7 10 C6.01886757 8.70982586 5.04015801 7.41780894 4.0625 6.125 C3.24458984 5.04605469 3.24458984 5.04605469 2.41015625 3.9453125 C1 2 1 2 0 0 Z "
     fill="#12798D"
     transform="translate(568,482)"
     id="path45" />
  <path
     d="M0 0 C-0.99 0.33 -1.98 0.66 -3 1 C-3 1.99 -3 2.98 -3 4 C-7.0527516 4.98248524 -10.83861737 5.08159574 -15 5 C-12.81915421 1.72873132 -12.18713893 1.40976616 -8.625 0.25 C-7.85414063 -0.01296875 -7.08328125 -0.2759375 -6.2890625 -0.546875 C-3.8128016 -1.03705634 -2.36758779 -0.80000683 0 0 Z "
     fill="#1A89D7"
     transform="translate(443,483)"
     id="path46" />
  <path
     d="M0 0 C1.98 0.99 1.98 0.99 4 2 C3.01 2.495 3.01 2.495 2 3 C2 11.25 2 19.5 2 28 C1.34 28 0.68 28 0 28 C0 18.76 0 9.52 0 0 Z "
     fill="#93C643"
     transform="translate(512,408)"
     id="path47" />
  <path
     d="M0 0 C1.4415018 0.2024751 2.87835746 0.43818335 4.3125 0.6875 C5.11300781 0.81511719 5.91351562 0.94273437 6.73828125 1.07421875 C9 2 9 2 12 7 C7.71 6.01 3.42 5.02 -1 4 C-0.67 2.68 -0.34 1.36 0 0 Z "
     fill="#249A8E"
     transform="translate(541,468)"
     id="path48" />
  <path
     d="M0 0 C3.31012244 3.31012244 3.50351065 4.53159589 4 9 C1.69 9 -0.62 9 -3 9 C-2.01 6.03 -1.02 3.06 0 0 Z "
     fill="#E6E7EB"
     transform="translate(888,579)"
     id="path49" />
  <path
     d="M0 0 C0 3.82827445 -0.62634077 4.97897917 -3 8 C-5.85719792 9.96759417 -8.77298298 11.71409189 -12 13 C-12.66 12.67 -13.32 12.34 -14 12 C-9.38 8.04 -4.76 4.08 0 0 Z "
     fill="#DAE8F5"
     transform="translate(375,508)"
     id="path50" />
  <path
     d="M0 0 C0.99 0.33 1.98 0.66 3 1 C2.71125 1.62648438 2.4225 2.25296875 2.125 2.8984375 C1.75375 3.71570313 1.3825 4.53296875 1 5.375 C0.62875 6.18710937 0.2575 6.99921875 -0.125 7.8359375 C-1.12495013 9.91998433 -1.12495013 9.91998433 -1 12 C-0.34 12.66 0.32 13.32 1 14 C-0.65 14.66 -2.3 15.32 -4 16 C-3.47606294 10.13190493 -2.23891142 5.45126259 0 0 Z "
     fill="#265799"
     transform="translate(397,478)"
     id="path51" />
  <path
     d="M0 0 C3.91402949 1.26941497 5.79072873 2.51167694 8 6 C7.34 6 6.68 6 6 6 C5.34 7.32 4.68 8.64 4 10 C3.32845067 8.71086513 2.66291141 7.41859796 2 6.125 C1.62875 5.40570313 1.2575 4.68640625 0.875 3.9453125 C0 2 0 2 0 0 Z "
     fill="#1F85D3"
     transform="translate(498,489)"
     id="path53" />
  <path
     d="M0 0 C0 0.66 0 1.32 0 2 C0.99 2.33 1.98 2.66 3 3 C-0.67410785 4.17571451 -4.16929183 4.07366746 -8 4 C-7.67 3.01 -7.34 2.02 -7 1 C-4 0 -4 0 0 0 Z "
     fill="#057ED3"
     transform="translate(447,482)"
     id="path55" />
  <path
     d="M0 0 C2 3 2 3 1.6796875 5.12109375 C0.11448177 9.62675878 -1.14018311 12.93876591 -5 16 C-4.80664062 15.43152344 -4.61328125 14.86304688 -4.4140625 14.27734375 C-2.81863577 9.54635062 -1.33099414 4.81205575 0 0 Z "
     fill="#2179A5"
     transform="translate(559,532)"
     id="path56" />
  <path
     d="M0 0 C3.875 1.75 3.875 1.75 5 4 C4.67 4.66 4.34 5.32 4 6 C-0.75 5.25 -0.75 5.25 -3 3 C-2.01 2.67 -1.02 2.34 0 2 C0 1.34 0 0.68 0 0 Z "
     fill="#20A1AD"
     transform="translate(559,493)"
     id="path59" />
  <path
     d="M0 0 C-0.33 1.65 -0.66 3.3 -1 5 C-3.97 5 -6.94 5 -10 5 C-3.63636364 0 -3.63636364 0 0 0 Z "
     fill="#255CA4"
     transform="translate(364,546)"
     id="path61" />
  <path
     d="M0 0 C0.33 0.66 0.66 1.32 1 2 C-0.21484375 4.3828125 -0.21484375 4.3828125 -1.9375 7.125 C-2.50339844 8.03507812 -3.06929688 8.94515625 -3.65234375 9.8828125 C-4.09707031 10.58148438 -4.54179687 11.28015625 -5 12 C-6 9 -6 9 -4.75 5.4375 C-3 2 -3 2 0 0 Z "
     fill="#D5E2F1"
     transform="translate(430,454)"
     id="path63" />
  <path
     d="M0 0 C0.33 0 0.66 0 1 0 C1 1.65 1 3.3 1 5 C-1.64738916 6.4606285 -2.89448334 7 -6 7 C-5.01 5.02 -4.02 3.04 -3 1 C-2.34 1.33 -1.68 1.66 -1 2 C-0.67 1.34 -0.34 0.68 0 0 Z "
     fill="#107998"
     transform="translate(578,505)"
     id="path64" />
  <path
     d="M0 0 C2 3 2 3 2 6 C3.65 6 5.3 6 7 6 C5.625 7.5 5.625 7.5 4 9 C3.34 9 2.68 9 2 9 C0.50178941 5.62902617 0 3.79557881 0 0 Z "
     fill="#145DAD"
     transform="translate(356,532)"
     id="path67" />
  <path
     d="M0 0 C2.97 0.495 2.97 0.495 6 1 C6.33 1.99 6.66 2.98 7 4 C6.01 4.33 5.02 4.66 4 5 C2.68 3.35 1.36 1.7 0 0 Z "
     fill="#027486"
     transform="translate(568,482)"
     id="path68" />
  <text
     xml:space="preserve"
     style="font-style:normal;font-variant:normal;font-weight:bold;font-stretch:condensed;font-size:37.3333px;font-family:Arial;-inkscape-font-specification:'Arial Bold Condensed';writing-mode:lr-tb;direction:ltr;fill:#000000;stroke-width:2.3"
     x="593.4696"
     y="492.79175"
     id="text68"><tspan
       sodipodi:role="line"
       id="tspan68"
       x="593.4696"
       y="492.79175"
       style="font-style:normal;font-variant:normal;font-weight:bold;font-stretch:condensed;font-size:37.3333px;font-family:Arial;-inkscape-font-specification:'Arial Bold Condensed';fill:#000080"><tspan
         style="font-size:85.3333px"
         id="tspan70">Core</tspan><tspan
         style="font-size:85.3333px;fill:#008000"
         id="tspan69">Lab</tspan><tspan
         style="font-size:85.3333px"
         id="tspan71">Tech</tspan></tspan><tspan
       sodipodi:role="line"
       x="593.4696"
       y="556.22217"
       style="font-style:normal;font-variant:normal;font-weight:bold;font-stretch:condensed;font-size:37.3333px;font-family:Arial;-inkscape-font-specification:'Arial Bold Condensed';fill:#000080"
       id="tspan72">   RESEARCH &amp; INNOVATION </tspan></text>
</svg>
